<svg xmlns="http://www.w3.org/2000/svg" width="24" height="24" viewBox="0 0 24 24">
  <g id="Group_1756" data-name="Group 1756" transform="translate(-11.207 -29.154)">
    <g id="Group_1754" data-name="Group 1754" transform="translate(11.207 29.154)">
      <g id="Group_1753" data-name="Group 1753" transform="translate(0 0)">
        <path id="Path_364" data-name="Path 364" d="M32.574,39.958v7.633a5.324,5.324,0,0,1-.037.693l.047-.35a4.221,4.221,0,0,1-.285,1.042l.133-.315a4.242,4.242,0,0,1-.533.912l.206-.267a4.265,4.265,0,0,1-.741.742l.266-.206a4.232,4.232,0,0,1-.911.534l.314-.133a4.208,4.208,0,0,1-1.041.286l.35-.047a8,8,0,0,1-1.045.038H16.949a6.614,6.614,0,0,1-.866-.038l.35.047a4.216,4.216,0,0,1-1.042-.286l.314.133a4.241,4.241,0,0,1-.912-.534l.266.206a4.271,4.271,0,0,1-.742-.742l.206.267a4.241,4.241,0,0,1-.534-.912l.133.315a4.214,4.214,0,0,1-.286-1.042l.047.35a8.006,8.006,0,0,1-.038-1.046V34.887a6.614,6.614,0,0,1,.038-.866l-.047.35a4.211,4.211,0,0,1,.286-1.042l-.133.315a4.235,4.235,0,0,1,.534-.911L14.318,33a4.267,4.267,0,0,1,.742-.742l-.266.206a4.242,4.242,0,0,1,.912-.533l-.314.133a4.218,4.218,0,0,1,1.042-.285l-.35.047a10.3,10.3,0,0,1,1.334-.037h6.989a1.317,1.317,0,0,0,0-2.634h-7.63a5.6,5.6,0,0,0-2.994.814,5.419,5.419,0,0,0-2.461,3.558,8.374,8.374,0,0,0-.107,1.487v11.22a8.794,8.794,0,0,0,.37,3.443,5.676,5.676,0,0,0,.542,1.056,5.817,5.817,0,0,0,.753.9,5.683,5.683,0,0,0,2.011,1.225,5.776,5.776,0,0,0,2,.292H29.411a7.435,7.435,0,0,0,1.64-.15A5.436,5.436,0,0,0,34.5,50.4a5.727,5.727,0,0,0,.7-2.863V39.958a1.317,1.317,0,1,0-2.633,0Z" transform="translate(-11.207 -29.154)" fill="#555"/>
      </g>
    </g>
    <g id="Group_1755" data-name="Group 1755" transform="translate(20.975 30.469)">
      <path id="Path_365" data-name="Path 365" d="M387.409,81.3l-9.573,9.576-3.085.189.138-3.137,9.573-9.576a.857.857,0,0,1,1.212-.016l1.751,1.752A.858.858,0,0,1,387.409,81.3Z" transform="translate(-374.75 -78.097)" fill="#555"/>
    </g>
  </g>
</svg>
