<svg xmlns="http://www.w3.org/2000/svg" width="25" height="21" viewBox="0 0 25 21">
  <g id="Icon_ionic-ios-cloud-upload" data-name="Icon ionic-ios-cloud-upload" transform="translate(0 -2.25)">
    <path id="Path_332" data-name="Path 332" d="M21.343,8.94a7.391,7.391,0,0,0-7.28-6.69A7.267,7.267,0,0,0,8.037,5.485,3.391,3.391,0,0,0,6.724,5.22,3.663,3.663,0,0,0,3.237,8.89,4.877,4.877,0,0,0,0,13.525,4.653,4.653,0,0,0,4.438,18.25h7.427v-7.1l-2.339,2.36a.628.628,0,0,1-.9,0,.665.665,0,0,1,0-.92l3.418-3.45h0a.62.62,0,0,1,.2-.135.594.594,0,0,1,.244-.05.629.629,0,0,1,.444.185l3.418,3.45a.66.66,0,0,1,0,.92.623.623,0,0,1-.9,0l-2.329-2.36v7.1h7.427a4.72,4.72,0,0,0,.781-9.31Z" fill="#2f373e"/>
    <path id="Path_333" data-name="Path 333" d="M17.086,29.242c0,.281.335.508.75.508s.75-.227.75-.508V24.75h-1.5Z" transform="translate(-5.336 -6.5)" fill="#2f373e"/>
  </g>
</svg>
