<svg xmlns="http://www.w3.org/2000/svg" width="16" height="16" viewBox="0 0 16 16">
  <g id="Layer_5" data-name="Layer 5" transform="translate(-4 -4)">
    <path id="Path_362" data-name="Path 362" d="M19.333,20a.667.667,0,0,0-.667.667v2.667A.667.667,0,0,1,18,24H6a.667.667,0,0,1-.667-.667V20.667a.667.667,0,0,0-1.333,0v2.667a2,2,0,0,0,2,2H18a2,2,0,0,0,2-2V20.667A.667.667,0,0,0,19.333,20Z" transform="translate(0 -5.333)" fill="#555"/>
    <path id="Path_363" data-name="Path 363" d="M11.9,15.413a2,2,0,0,0,2.827,0L18.5,11.64a.667.667,0,1,0-.947-.94l-3.573,3.573V4.667a.667.667,0,0,0-1.333,0v9.607L9.07,10.7a.667.667,0,0,0-.947.94Z" transform="translate(-1.31)" fill="#555"/>
  </g>
</svg>
