<svg xmlns="http://www.w3.org/2000/svg" width="16" height="19" viewBox="0 0 16 19">
  <path id="Layer_5" data-name="Layer 5" d="M16.747,3.16A3.826,3.826,0,0,0,14,2H7.333A3.363,3.363,0,0,0,4,5.393V17.607A3.363,3.363,0,0,0,7.333,21h9.333A3.363,3.363,0,0,0,20,17.607v-9.5a4.006,4.006,0,0,0-1.14-2.8Zm-2.08.292a1.14,1.14,0,0,1,.213.075,1.4,1.4,0,0,1,.307.142l.16.095a2.2,2.2,0,0,1,.44.353L17.9,6.268c.067.068.127.143.187.217l.113.163a1.361,1.361,0,0,1,.113.183,1.366,1.366,0,0,1,.1.2,1.715,1.715,0,0,1,.12.326v.075h-3.2a.673.673,0,0,1-.667-.679v-3.3Zm2,16.191H7.333a2.018,2.018,0,0,1-2-2.036V5.393a2.018,2.018,0,0,1,2-2.036h6V6.75a2.018,2.018,0,0,0,2,2.036h3.333v8.821A2.018,2.018,0,0,1,16.667,19.643Z" transform="translate(-4 -2)" fill="#555"/>
</svg>
