<svg xmlns="http://www.w3.org/2000/svg" width="26" height="26" viewBox="0 0 26 26">
  <path id="Path_353" data-name="Path 353" d="M16.55,15.17a.56.56,0,0,0-.17-.09A.64.64,0,0,0,16.2,15a1.061,1.061,0,0,0-.91.27A1.05,1.05,0,0,0,15,16a1,1,0,0,0,.29.71,1.15,1.15,0,0,0,.33.21.94.94,0,0,0,.76,0,1.15,1.15,0,0,0,.33-.21A1,1,0,0,0,17,16a1.05,1.05,0,0,0-.29-.71ZM18.8,15a.64.64,0,0,0-.18.06.76.76,0,0,0-.18.09l-.15.12a1,1,0,0,0,1.09,1.63,1.15,1.15,0,0,0,.33-.21A1,1,0,0,0,20,16a1.05,1.05,0,0,0-.29-.71A1,1,0,0,0,18.8,15Zm-5.42.08a1,1,0,0,0-1.09.21A1.05,1.05,0,0,0,12,16a1,1,0,0,0,2,0,1.05,1.05,0,0,0-.29-.71A1.15,1.15,0,0,0,13.38,15.08ZM16,23a1,1,0,0,0-1,1v4a1,1,0,0,0,2,0V24A1,1,0,0,0,16,23ZM16,3a1,1,0,0,0-1,1V8a1,1,0,0,0,2,0V4A1,1,0,0,0,16,3ZM28,15H24a1,1,0,0,0,0,2h4a1,1,0,0,0,0-2Zm-5.71,5.88a1,1,0,0,0-1.41,1.41l2.83,2.83a1,1,0,0,0,1.41-1.41Zm-.7-9.47a1,1,0,0,0,.7-.29l2.83-2.83a1,1,0,0,0-1.41-1.41L20.88,9.71a1,1,0,0,0,.71,1.7ZM9,16a1,1,0,0,0-1-1H4a1,1,0,0,0,0,2H8A1,1,0,0,0,9,16Zm.71,4.88L6.88,23.71a1,1,0,0,0,1.41,1.41l2.83-2.83a1,1,0,0,0-1.41-1.41Zm-1.42-14A1,1,0,1,0,6.88,8.29l2.83,2.83a1,1,0,1,0,1.41-1.41Z" transform="translate(-3 -3)"/>
</svg>
