<svg xmlns="http://www.w3.org/2000/svg" width="14" height="28" viewBox="0 0 14 28">
  <path id="Path_367" data-name="Path 367" d="M15,6.662l-4.3,4.623-.05.051a1.13,1.13,0,0,1-.109.089.981.981,0,0,1-1.3-.193A1.177,1.177,0,0,1,9.2,9.874a.935.935,0,0,1,.09-.111L15.291,3.3a.987.987,0,0,1,.81-.31,1.025,1.025,0,0,1,.5.214,1.1,1.1,0,0,1,.1.1l6.006,6.463a.936.936,0,0,1,.09.111,1.174,1.174,0,0,1,0,1.3.989.989,0,0,1-.968.41.97.97,0,0,1-.435-.2.987.987,0,0,1-.1-.1L17,6.662V29.911a2.091,2.091,0,0,1-.022.224.988.988,0,0,1-1.958,0A2.091,2.091,0,0,1,15,29.911Z" transform="translate(-9 -2.987)" fill="#555"/>
</svg>
