<svg xmlns="http://www.w3.org/2000/svg" width="16" height="19" viewBox="0 0 16 19">
  <path id="Path_354" data-name="Path 354" d="M18,12.647V9.619A5.8,5.8,0,0,0,13,3.99V2.952a1,1,0,0,0-2,0V3.99A5.8,5.8,0,0,0,6,9.619v3.028a2.87,2.87,0,0,0-2,2.686v1.9a.977.977,0,0,0,1,.952H8.14A3.974,3.974,0,0,0,12,21a3.974,3.974,0,0,0,3.86-2.81H19a.977.977,0,0,0,1-.952v-1.9a2.87,2.87,0,0,0-2-2.686ZM8,9.619a3.908,3.908,0,0,1,4-3.809,3.908,3.908,0,0,1,4,3.809v2.857H8Zm4,9.523a2.02,2.02,0,0,1-1.72-.952h3.44A2.02,2.02,0,0,1,12,19.142Zm6-2.857H6v-.952a.977.977,0,0,1,1-.952H17a.977.977,0,0,1,1,.952Z" transform="translate(-4 -2)" fill="#555"/>
</svg>
