<svg class="svg-icon" style="width: 1em; height: 1em;vertical-align: middle;fill: currentColor;overflow: hidden;" viewBox="0 0 1024 1024" version="1.1" xmlns="http://www.w3.org/2000/svg"><path d="M768.571429 268.571429l0 58.285714q0 8-5.142857 13.142857t-13.142857 5.142857l-96 0q-13.142857 82.285714-73.714286 133.714286t-157.714286 62.857143q95.428571 101.714286 262.285714 306.285714 8 9.142857 2.285714 19.428571-4.571429 10.285714-16.571429 10.285714l-111.428571 0q-9.142857 0-14.285714-6.857143-174.857143-209.714286-284.571429-326.285714-5.142857-5.142857-5.142857-12.571429l0-72.571429q0-7.428571 5.428571-12.857143t12.857143-5.428571l64 0q75.428571 0 121.428571-24.571429t58.571429-71.428571l-244 0q-8 0-13.142857-5.142857t-5.142857-13.142857l0-58.285714q0-8 5.142857-13.142857t13.142857-5.142857l236 0q-32.571429-64.571429-153.142857-64.571429l-82.857143 0q-7.428571 0-12.857143-5.428571t-5.428571-12.857143l0-76q0-8 5.142857-13.142857t13.142857-5.142857l475.428571 0q8 0 13.142857 5.142857t5.142857 13.142857l0 58.285714q0 8-5.142857 13.142857t-13.142857 5.142857l-133.142857 0q26.857143 34.857143 36.571429 82.285714l97.714286 0q8 0 13.142857 5.142857t5.142857 13.142857z"  /></svg>